<?xml version="1.0" encoding="UTF-8" standalone="no"?>
<!-- Generator: Adobe Illustrator 16.0.0, SVG Export Plug-In . SVG Version: 6.00 Build 0)  -->

<svg
   xmlns:osb="http://www.openswatchbook.org/uri/2009/osb"
   xmlns:dc="http://purl.org/dc/elements/1.1/"
   xmlns:cc="http://creativecommons.org/ns#"
   xmlns:rdf="http://www.w3.org/1999/02/22-rdf-syntax-ns#"
   xmlns:svg="http://www.w3.org/2000/svg"
   xmlns="http://www.w3.org/2000/svg"
   xmlns:sodipodi="http://sodipodi.sourceforge.net/DTD/sodipodi-0.dtd"
   xmlns:inkscape="http://www.inkscape.org/namespaces/inkscape"
   version="1.1"
   id="Capa_1"
   x="0px"
   y="0px"
   width="611.993px"
   height="611.993px"
   viewBox="0 0 611.993 611.993"
   style="enable-background:new 0 0 611.993 611.993;"
   xml:space="preserve"
   inkscape:version="0.91 r13725"
   sodipodi:docname="webaholic.svg"
   inkscape:export-filename="/fahad/Downloads/webaholic.svg.png"
   inkscape:export-xdpi="90"
   inkscape:export-ydpi="90"><metadata
     id="metadata3667"><rdf:RDF><cc:Work
         rdf:about=""><dc:format>image/svg+xml</dc:format><dc:type
           rdf:resource="http://purl.org/dc/dcmitype/StillImage" /><dc:title /></cc:Work></rdf:RDF></metadata><defs
     id="defs3665"><linearGradient
       id="linearGradient5638"
       osb:paint="solid"><stop
         style="stop-color:#000000;stop-opacity:1;"
         offset="0"
         id="stop5640" /></linearGradient></defs><sodipodi:namedview
     pagecolor="#ffffff"
     bordercolor="#666666"
     borderopacity="1"
     objecttolerance="10"
     gridtolerance="10"
     guidetolerance="10"
     inkscape:pageopacity="0"
     inkscape:pageshadow="2"
     inkscape:window-width="1366"
     inkscape:window-height="710"
     id="namedview3663"
     showgrid="false"
     inkscape:zoom="0.62161407"
     inkscape:cx="709.42638"
     inkscape:cy="223.41066"
     inkscape:window-x="0"
     inkscape:window-y="32"
     inkscape:window-maximized="1"
     inkscape:current-layer="g3629" /><g
     id="g3629"><path
       d="M 559.19089,73.532238 C 529.31137,43.967842 486.25046,25.014994 440.94806,25.014994 c -26.67138,0 -51.73194,6.100794 -75.82621,18.316251 -24.10224,12.207511 -43.69869,28.911939 -59.12193,50.120129 -15.42224,-21.20819 -35.02071,-37.912618 -59.12099,-50.121121 -24.1012,-12.214465 -49.16146,-18.316252 -75.82622,-18.316252 -45.3023,0 -88.356364,18.953841 -118.242494,48.517242 C 22.929967,103.08948 3.9702154,146.14392 3.9702154,191.45333 c 0,31.16108 6.6209656,61.41066 14.7787256,84.18201 4.050771,11.28995 10.172282,23.52479 18.315255,35.98709 8.239678,12.60525 15.745021,23.13386 22.167592,31.48234 C 131.42682,424.65972 227.02704,500.20301 295.5361,574.9453 l 10.45582,12.03368 11.10065,-12.03368 c 78.48809,-87.72137 170.04766,-153.33006 234.3867,-234.73178 6.827,-8.60979 14.0382,-19.02289 22.16745,-31.48419 16.6087,-25.45106 23.8812,-45.60313 29.87916,-73.8995 2.98771,-14.12029 4.49688,-28.59808 4.49688,-43.3755 0.007,-45.31041 -18.9528,-88.36485 -48.83187,-117.922092 z"
       id="path3631"
       inkscape:connector-curvature="0"
       sodipodi:nodetypes="cscccscsccccccccccc"
       style="opacity:1;fill:#ffffff;stroke:#000000;stroke-width:3;stroke-linecap:butt;stroke-linejoin:miter;stroke-miterlimit:4;stroke-dasharray:none;stroke-opacity:1"
       inkscape:export-xdpi="90"
       inkscape:export-ydpi="90" /><g
       id="g3889"
       transform="matrix(0.89710022,0,0,0.89710022,78.526498,66.526498)"
       style="fill:#000000"><g
         id="g3807"
         style="fill:#000000"><g
           id="g3809"
           style="fill:#000000"><g
             id="g3811"
             style="fill:#000000"><polygon
               id="polygon3813"
               points="116.353,267.542 97.629,194.202 69.048,194.202 49.742,267.542 28.775,194.202 0,194.202 35.419,306.111 64.238,306.111 83.155,234.108 102.504,306.111 130.978,306.111 166.979,194.202 137.708,194.202 "
               style="fill:#000000" /><polygon
               id="polygon3815"
               points="203.24,306.111 232.08,306.111 251.019,234.108 270.411,306.111 298.842,306.111 334.843,194.202 305.636,194.202 284.173,267.542 265.472,194.202 236.912,194.202 217.584,267.542 196.531,194.202 167.756,194.202 "
               style="fill:#000000" /><polygon
               id="polygon3817"
               points="364.395,194.202 335.577,194.202 371.082,306.111 399.879,306.111 418.818,234.108 438.146,306.111 466.662,306.111 502.664,194.202 473.392,194.202 451.973,267.542 433.292,194.202 404.668,194.202 385.34,267.542 "
               style="fill:#000000" /><path
               id="path3819"
               d="m 251.321,35.764 c -86.564,0 -161.026,51.166 -195.28,124.765 l 390.582,0 C 412.326,86.93 337.885,35.764 251.321,35.764 Z"
               style="fill:#000000"
               inkscape:connector-curvature="0" /><path
               id="path3821"
               d="m 251.321,466.9 c 86.585,0 160.961,-51.144 195.28,-124.765 l -390.517,0 C 90.338,415.734 164.758,466.9 251.321,466.9 Z"
               style="fill:#000000"
               inkscape:connector-curvature="0" /></g></g><g
           id="g3823"
           style="fill:#000000" /><g
           id="g3825"
           style="fill:#000000" /><g
           id="g3827"
           style="fill:#000000" /><g
           id="g3829"
           style="fill:#000000" /><g
           id="g3831"
           style="fill:#000000" /><g
           id="g3833"
           style="fill:#000000" /><g
           id="g3835"
           style="fill:#000000" /><g
           id="g3837"
           style="fill:#000000" /><g
           id="g3839"
           style="fill:#000000" /><g
           id="g3841"
           style="fill:#000000" /><g
           id="g3843"
           style="fill:#000000" /><g
           id="g3845"
           style="fill:#000000" /><g
           id="g3847"
           style="fill:#000000" /><g
           id="g3849"
           style="fill:#000000" /><g
           id="g3851"
           style="fill:#000000" /></g><g
         id="g3853"
         style="fill:#000000" /><g
         id="g3855"
         style="fill:#000000" /><g
         id="g3857"
         style="fill:#000000" /><g
         id="g3859"
         style="fill:#000000" /><g
         id="g3861"
         style="fill:#000000" /><g
         id="g3863"
         style="fill:#000000" /><g
         id="g3865"
         style="fill:#000000" /><g
         id="g3867"
         style="fill:#000000" /><g
         id="g3869"
         style="fill:#000000" /><g
         id="g3871"
         style="fill:#000000" /><g
         id="g3873"
         style="fill:#000000" /><g
         id="g3875"
         style="fill:#000000" /><g
         id="g3877"
         style="fill:#000000" /><g
         id="g3879"
         style="fill:#000000" /><g
         id="g3881"
         style="fill:#000000" /></g></g><g
     id="g3633" /><g
     id="g3635" /><g
     id="g3637" /><g
     id="g3639" /><g
     id="g3641" /><g
     id="g3643" /><g
     id="g3645" /><g
     id="g3647" /><g
     id="g3649" /><g
     id="g3651" /><g
     id="g3653" /><g
     id="g3655" /><g
     id="g3657" /><g
     id="g3659" /><g
     id="g3661" /></svg>